REM DIRINDEX 1\2,1\3,1\4,1\5
REM DIRNAME folder01,folder02,folder03,folder04,folder05
TITLE ""
FILE "Round-06-134-135.mp3" MP3
  TRACK 01 AUDIO
    TITLE "0:"
    INDEX 01 00:00:00
  TRACK 02 AUDIO
    TITLE "2:cjc093_1536"
    INDEX 01 00:00:01
  TRACK 03 AUDIO
    TITLE "0:"
    INDEX 01 00:01:15
  TRACK 04 AUDIO
    TITLE "3:cjc093_1537"
    INDEX 01 00:01:68
  TRACK 05 AUDIO
    TITLE "0:"
    INDEX 01 00:04:21
  TRACK 06 AUDIO
    TITLE "4:cjc093_1538"
    INDEX 01 00:04:44
  TRACK 07 AUDIO
    TITLE "0:"
    INDEX 01 00:08:64
  TRACK 08 AUDIO
    TITLE "3:cjc093_1539"
    INDEX 01 00:10:02
  TRACK 09 AUDIO
    TITLE "0:"
    INDEX 01 00:12:16
  TRACK 10 AUDIO
    TITLE "4:cjc093_1540"
    INDEX 01 00:12:44
  TRACK 11 AUDIO
    TITLE "0:"
    INDEX 01 00:16:12
  TRACK 12 AUDIO
    TITLE "3:cjc093_1541"
    INDEX 01 00:17:20
  TRACK 13 AUDIO
    TITLE "0:"
    INDEX 01 00:18:56
  TRACK 14 AUDIO
    TITLE "4:cjc093_1542"
    INDEX 01 00:19:05
  TRACK 15 AUDIO
    TITLE "0:"
    INDEX 01 00:22:07
  TRACK 16 AUDIO
    TITLE "2:cjc093_1543"
    INDEX 01 00:23:18
  TRACK 17 AUDIO
    TITLE "0:"
    INDEX 01 00:24:25
  TRACK 18 AUDIO
    TITLE "3:cjc093_1544"
    INDEX 01 00:24:69
  TRACK 19 AUDIO
    TITLE "0:"
    INDEX 01 00:26:30
  TRACK 20 AUDIO
    TITLE "4:cjc093_1545"
    INDEX 01 00:26:46
  TRACK 21 AUDIO
    TITLE "0:"
    INDEX 01 00:29:52
  TRACK 22 AUDIO
    TITLE "2:cjc093_1546"
    INDEX 01 00:30:63
  TRACK 23 AUDIO
    TITLE "0:"
    INDEX 01 00:31:67
  TRACK 24 AUDIO
    TITLE "3:cjc093_1547"
    INDEX 01 00:32:37
  TRACK 25 AUDIO
    TITLE "0:"
    INDEX 01 00:34:20
  TRACK 26 AUDIO
    TITLE "4:cjc093_1548"
    INDEX 01 00:34:43
  TRACK 27 AUDIO
    TITLE "0:"
    INDEX 01 00:37:12
  TRACK 28 AUDIO
    TITLE "2:cjc093_1549"
    INDEX 01 00:38:26
  TRACK 29 AUDIO
    TITLE "0:"
    INDEX 01 00:40:17
  TRACK 30 AUDIO
    TITLE "3:cjc093_1550"
    INDEX 01 00:40:66
  TRACK 31 AUDIO
    TITLE "0:"
    INDEX 01 00:42:53
  TRACK 32 AUDIO
    TITLE "4:cjc093_1551"
    INDEX 01 00:43:40
  TRACK 33 AUDIO
    TITLE "0:"
    INDEX 01 00:47:15
  TRACK 34 AUDIO
    TITLE "2:cjc093_1552"
    INDEX 01 00:48:28
  TRACK 35 AUDIO
    TITLE "0:"
    INDEX 01 00:49:49
  TRACK 36 AUDIO
    TITLE "3:cjc093_1553"
    INDEX 01 00:50:17
  TRACK 37 AUDIO
    TITLE "0:"
    INDEX 01 00:53:09
  TRACK 38 AUDIO
    TITLE "4:cjc093_1554"
    INDEX 01 00:53:70
  TRACK 39 AUDIO
    TITLE "0:"
    INDEX 01 00:58:13
  TRACK 40 AUDIO
    TITLE "2:cjc093_1555"
    INDEX 01 00:59:18
  TRACK 41 AUDIO
    TITLE "0:"
    INDEX 01 01:00:41
  TRACK 42 AUDIO
    TITLE "3:cjc093_1556"
    INDEX 01 01:01:13
  TRACK 43 AUDIO
    TITLE "0:"
    INDEX 01 01:02:61
  TRACK 44 AUDIO
    TITLE "4:cjc093_1557"
    INDEX 01 01:03:31
  TRACK 45 AUDIO
    TITLE "0:"
    INDEX 01 01:07:04
  TRACK 46 AUDIO
    TITLE "3:cjc093_1558"
    INDEX 01 01:08:19
  TRACK 47 AUDIO
    TITLE "0:"
    INDEX 01 01:10:02
  TRACK 48 AUDIO
    TITLE "4:cjc093_1559"
    INDEX 01 01:10:45
  TRACK 49 AUDIO
    TITLE "0:"
    INDEX 01 01:13:61
  TRACK 50 AUDIO
    TITLE "2:cjc093_1560"
    INDEX 01 01:14:21
  TRACK 51 AUDIO
    TITLE "0:"
    INDEX 01 01:15:31
  TRACK 52 AUDIO
    TITLE "3:cjc093_1561"
    INDEX 01 01:15:74
  TRACK 53 AUDIO
    TITLE "0:"
    INDEX 01 01:17:43
  TRACK 54 AUDIO
    TITLE "4:cjc093_1562"
    INDEX 01 01:17:73
  TRACK 55 AUDIO
    TITLE "0:"
    INDEX 01 01:21:69
  TRACK 56 AUDIO
    TITLE "2:cjc093_1563"
    INDEX 01 01:23:05
  TRACK 57 AUDIO
    TITLE "0:"
    INDEX 01 01:24:26
  TRACK 58 AUDIO
    TITLE "3:cjc093_1564"
    INDEX 01 01:24:57
  TRACK 59 AUDIO
    TITLE "0:"
    INDEX 01 01:26:48
  TRACK 60 AUDIO
    TITLE "4:cjc093_1565"
    INDEX 01 01:26:64
  TRACK 61 AUDIO
    TITLE "0:"
    INDEX 01 01:30:17
